<svg width="20" height="17" viewBox="0 0 20 17" fill="none" xmlns="http://www.w3.org/2000/svg">
<path d="M17.7182 7.87044C18.2734 7.5003 18.6912 7.12391 19 6.78996V10.3076C19 11.1055 18.3272 12.0971 16.6239 12.9487C14.9803 13.7705 12.6398 14.3076 10 14.3076C7.36016 14.3076 5.01967 13.7705 3.37615 12.9487C1.67281 12.0971 1 11.1055 1 10.3076V6.78996C1.30876 7.12391 1.72663 7.5003 2.28184 7.87044C3.77073 8.86303 6.18326 9.76916 10 9.76916C13.8167 9.76916 16.2293 8.86303 17.7182 7.87044Z" stroke="black" stroke-width="2"/>
<path d="M19 5.30762C19 6.1055 18.3272 7.09705 16.6239 7.94872C14.9803 8.77049 12.6398 9.30762 10 9.30762C7.36016 9.30762 5.01967 8.77049 3.37615 7.94872C1.67281 7.09705 1 6.1055 1 5.30762C1 4.50973 1.67281 3.51818 3.37615 2.66651C5.01967 1.84475 7.36016 1.30762 10 1.30762C12.6398 1.30762 14.9803 1.84475 16.6239 2.66651C18.3272 3.51818 19 4.50973 19 5.30762Z" stroke="black" stroke-width="2"/>
<path d="M3 12.3076L1 14.9743M5 13.641L3 16.3076" stroke="black"/>
<path d="M17 16.3076L15 13.641M19 14.9743L17 12.3076" stroke="black"/>
<path d="M5.38468 5.69216L1.53867 4.59307" stroke="black"/>
<path d="M18.6311 4.59297L14.6156 5.69209" stroke="black"/>
<ellipse cx="10" cy="5.30762" rx="2" ry="1" fill="black"/>
</svg>
